<svg width="78" height="49" viewBox="0 0 78 49" fill="none" xmlns="http://www.w3.org/2000/svg">
<g clip-path="url(#clip0_11_52)">
<rect width="76.8622" height="48.0389" transform="translate(0.568909)" fill="#528265" fill-opacity="0.01"/>
<g clip-path="url(#clip1_11_52)">
<g clip-path="url(#clip2_11_52)">
<g clip-path="url(#clip3_11_52)">
<g clip-path="url(#clip4_11_52)">
<g clip-path="url(#clip5_11_52)">
<g clip-path="url(#clip6_11_52)">
<g clip-path="url(#clip7_11_52)">
<g clip-path="url(#clip8_11_52)">
<g clip-path="url(#clip9_11_52)">
<path d="M20.1423 29.04C18.1044 29.04 16.4741 28.4904 15.2514 27.3912L15.8442 26.224C16.4865 26.7674 17.1448 27.1565 17.8191 27.3912C18.491 27.6258 19.2716 27.7431 20.1608 27.7431C21.2106 27.7431 22.0196 27.5394 22.5877 27.1318C23.1559 26.7242 23.4399 26.1499 23.4399 25.4089C23.4399 24.9766 23.3041 24.6246 23.0324 24.3529C22.7606 24.0812 22.4025 23.865 21.9578 23.7045C21.5132 23.5439 20.9142 23.3772 20.1608 23.2043C19.1481 22.9696 18.3181 22.7226 17.6709 22.4632C17.0213 22.2039 16.4964 21.8333 16.0962 21.3517C15.6936 20.87 15.4922 20.2401 15.4922 19.462C15.4922 18.721 15.6874 18.0627 16.0777 17.4871C16.4655 16.914 17.0213 16.4694 17.745 16.1532C18.4663 15.8395 19.3024 15.6827 20.2534 15.6827C21.155 15.6827 21.9986 15.8247 22.7841 16.1088C23.5671 16.3928 24.2304 16.8004 24.7738 17.3315L24.1995 18.4986C23.582 17.9676 22.9558 17.581 22.3209 17.3389C21.6837 17.0993 20.9945 16.9795 20.2534 16.9795C19.2407 16.9795 18.4478 17.1919 17.8747 17.6168C17.2992 18.0441 17.0114 18.6407 17.0114 19.4064C17.0114 20.061 17.2646 20.555 17.7709 20.8885C18.2773 21.222 19.0431 21.506 20.0682 21.7407C21.1921 22.0124 22.0752 22.2619 22.7174 22.4892C23.3596 22.7189 23.8944 23.0622 24.3218 23.5192C24.7466 23.9762 24.9591 24.5875 24.9591 25.3533C24.9591 26.0943 24.7652 26.7427 24.3773 27.2985C23.9871 27.8543 23.4276 28.2829 22.6989 28.5842C21.9702 28.8881 21.118 29.04 20.1423 29.04ZM34.7593 24.0565V24.6122H28.1641C28.2135 25.6621 28.4975 26.455 29.0163 26.991C29.535 27.5295 30.2699 27.7987 31.2209 27.7987C32.2707 27.7987 33.234 27.4406 34.1109 26.7242L34.6111 27.8173C34.2159 28.1878 33.7095 28.4805 33.092 28.6954C32.4745 28.9128 31.8446 29.0214 31.2023 29.0214C29.7944 29.0214 28.6853 28.6077 27.8751 27.7802C27.0673 26.9527 26.6635 25.8103 26.6635 24.3529C26.6635 23.4266 26.8425 22.6077 27.2007 21.8963C27.5589 21.1874 28.0616 20.6353 28.7087 20.2401C29.3584 19.8449 30.097 19.6473 30.9245 19.6473C32.1225 19.6473 33.0611 20.0388 33.7404 20.8218C34.4197 21.6073 34.7593 22.6855 34.7593 24.0565ZM30.943 20.8144C30.1525 20.8144 29.5189 21.0614 29.0422 21.5554C28.5679 22.0495 28.2876 22.7473 28.2011 23.6489H33.444C33.4193 22.7349 33.1908 22.0334 32.7585 21.5443C32.3263 21.0577 31.7211 20.8144 30.943 20.8144ZM43.5407 19.8696H45.0413V28.2804C45.0413 29.6266 44.6955 30.6431 44.0039 31.3298C43.3122 32.014 42.2871 32.3561 40.9285 32.3561C39.3476 32.3561 38.0199 31.9486 36.9454 31.1334L37.4456 30.0219C38.0508 30.4171 38.6189 30.7011 39.15 30.8741C39.6811 31.047 40.2739 31.1334 40.9285 31.1334C41.7931 31.1334 42.4477 30.9012 42.8923 30.4368C43.3369 29.9749 43.5592 29.2993 43.5592 28.4101V26.8168C43.2999 27.3973 42.9009 27.842 42.3624 28.1507C41.8264 28.4595 41.1941 28.6139 40.4654 28.6139C39.6749 28.6139 38.9734 28.4286 38.3608 28.0581C37.7507 27.6876 37.2752 27.1627 36.9343 26.4834C36.5959 25.8041 36.4267 25.0198 36.4267 24.1306C36.4267 23.2413 36.5959 22.457 36.9343 21.7778C37.2752 21.0985 37.7507 20.5736 38.3608 20.203C38.9734 19.8325 39.6749 19.6473 40.4654 19.6473C41.1817 19.6473 41.8054 19.8016 42.3365 20.1104C42.8676 20.4192 43.269 20.8576 43.5407 21.4258V19.8696ZM40.7618 27.3726C41.6263 27.3726 42.3056 27.0849 42.7997 26.5093C43.2937 25.9362 43.5407 25.1433 43.5407 24.1306C43.5407 23.1302 43.2962 22.3422 42.8071 21.7666C42.3205 21.1936 41.6387 20.907 40.7618 20.907C39.8849 20.907 39.1957 21.1936 38.6943 21.7666C38.1953 22.3422 37.9458 23.1302 37.9458 24.1306C37.9458 25.1433 38.1953 25.9362 38.6943 26.5093C39.1957 27.0849 39.8849 27.3726 40.7618 27.3726ZM51.4847 19.6473C52.6333 19.6473 53.4892 19.94 54.0524 20.5254C54.6131 21.1133 54.8935 22.0062 54.8935 23.2043V28.8918H53.4299V27.3541C53.1953 27.8852 52.8371 28.2952 52.3554 28.5842C51.8737 28.8757 51.3179 29.0214 50.6881 29.0214C50.1076 29.0214 49.574 28.9041 49.0874 28.6694C48.5983 28.4348 48.2117 28.1075 47.9277 27.6876C47.6436 27.2676 47.5016 26.8045 47.5016 26.2981C47.5016 25.6188 47.6745 25.0902 48.0203 24.7123C48.3661 24.3368 48.9343 24.0651 49.7247 23.8971C50.5151 23.7316 51.6144 23.6489 53.0223 23.6489H53.4299V23.0375C53.4299 22.2841 53.2755 21.737 52.9668 21.3961C52.658 21.0577 52.1578 20.8885 51.4662 20.8885C50.4287 20.8885 49.3974 21.2096 48.3723 21.8519L47.8721 20.7588C48.3414 20.4254 48.9071 20.1561 49.5691 19.9511C50.2286 19.7485 50.8671 19.6473 51.4847 19.6473ZM50.8918 27.8358C51.6329 27.8358 52.2418 27.5851 52.7185 27.0836C53.1928 26.5846 53.4299 25.9399 53.4299 25.1495V24.6122H53.0964C52.0096 24.6122 51.1821 24.6579 50.614 24.7493C50.0458 24.8432 49.642 24.9976 49.4023 25.2125C49.1603 25.4299 49.0392 25.7485 49.0392 26.1684C49.0392 26.6501 49.2159 27.0478 49.5691 27.3615C49.9198 27.6777 50.3608 27.8358 50.8918 27.8358ZM62.6188 19.6473L62.7485 20.9441L61.7666 21.0367C60.8403 21.1232 60.1709 21.4134 59.7584 21.9074C59.3434 22.4015 59.1359 23.0128 59.1359 23.7415V28.8918H57.6353V19.8696H59.0989V21.4443C59.6053 20.3945 60.5995 19.8078 62.0816 19.6843L62.6188 19.6473Z" fill="#528265"/>
</g>
</g>
</g>
</g>
</g>
</g>
</g>
<path d="M0.568909 24.0194C0.568909 10.7539 11.3229 0 24.5883 0C34.1658 0 42.434 5.6055 46.2911 13.7146H45.4553C41.655 6.03362 33.7385 0.75187 24.5883 0.75187C11.7379 0.75187 1.32078 11.1692 1.32078 24.0194C1.32078 36.8698 11.7381 47.287 24.5883 47.287C33.7385 47.287 41.655 42.0052 45.4553 34.3243H46.2911C42.4338 42.4334 34.1658 48.0389 24.5883 48.0389C11.3229 48.0389 0.568909 37.2849 0.568909 24.0194Z" fill="#528265"/>
</g>
</g>
</g>
<defs>
<clipPath id="clip0_11_52">
<rect width="76.8622" height="48.0389" fill="white" transform="translate(0.568909)"/>
</clipPath>
<clipPath id="clip1_11_52">
<rect width="76.8622" height="48.0389" fill="white" transform="translate(0.568909)"/>
</clipPath>
<clipPath id="clip2_11_52">
<rect width="76.8622" height="48.0389" fill="white" transform="translate(0.568909)"/>
</clipPath>
<clipPath id="clip3_11_52">
<rect width="47.5008" height="16.6735" fill="white" transform="translate(15.2496 15.6827)"/>
</clipPath>
<clipPath id="clip4_11_52">
<rect width="47.5008" height="16.6735" fill="white" transform="translate(15.2496 15.6827)"/>
</clipPath>
<clipPath id="clip5_11_52">
<rect width="47.5008" height="16.6735" fill="white" transform="translate(15.2496 15.6827)"/>
</clipPath>
<clipPath id="clip6_11_52">
<rect width="47.5008" height="16.6735" fill="white" transform="translate(15.2496 15.6827)"/>
</clipPath>
<clipPath id="clip7_11_52">
<rect width="47.5008" height="16.6735" fill="white" transform="translate(15.2496 15.6827)"/>
</clipPath>
<clipPath id="clip8_11_52">
<rect width="47.5008" height="16.6735" fill="white" transform="translate(15.2496 15.6827)"/>
</clipPath>
<clipPath id="clip9_11_52">
<rect width="47.5008" height="16.6735" fill="white" transform="translate(15.2496 15.6827)"/>
</clipPath>
</defs>
</svg>
